<svg width="39" height="35" viewBox="0 0 39 35" fill="none" xmlns="http://www.w3.org/2000/svg">
<path d="M6.50006 28.7469V20.4088L15.1841 26.1617C16.4975 27.032 17.9856 27.49 19.5002 27.49C21.0147 27.49 22.5028 27.032 23.8162 26.1617L32.5003 20.4113V28.7469C32.5005 28.9111 32.4727 29.0739 32.4184 29.2257C32.3642 29.3776 32.2845 29.5156 32.1839 29.6319L32.1796 29.6344L32.1753 29.6419L32.1601 29.6569L32.1103 29.7119L31.9369 29.8969C31.7252 30.1114 31.5077 30.3181 31.2848 30.517C30.5065 31.2065 29.6796 31.8195 28.8126 32.3496C25.9451 34.1048 22.7461 35.0152 19.5002 34.9998C16.2542 35.0152 13.0553 34.1048 10.1878 32.3496C9.32149 31.8194 8.49525 31.2064 7.71773 30.517C7.43183 30.2627 7.15567 29.994 6.89006 29.7119L6.84023 29.6569C6.73404 29.5389 6.64929 29.3976 6.59088 29.2413C6.53248 29.0851 6.50161 28.917 6.50006 28.7469ZM38.4565 13.5808L22.7372 23.994C21.7522 24.6468 20.6361 24.9903 19.5002 24.9903C18.3643 24.9903 17.2482 24.6468 16.2631 23.994L2.16669 14.6559V26.2467C2.16669 26.5782 2.05255 26.8962 1.84938 27.1306C1.64622 27.3651 1.37066 27.4968 1.08334 27.4968C0.796022 27.4968 0.52047 27.3651 0.317304 27.1306C0.114138 26.8962 1.66683e-07 26.5782 1.66683e-07 26.2467V12.4957C-0.000108166 12.2703 0.052592 12.0491 0.152523 11.8554C0.252453 11.6618 0.395897 11.5029 0.567672 11.3956L16.2631 0.997394C17.248 0.343913 18.3641 0 19.5002 0C20.6362 0 21.7524 0.343913 22.7372 0.997394L38.4565 11.4131C38.6217 11.5227 38.7589 11.6806 38.8543 11.8709C38.9498 12.0611 39 12.2771 39 12.497C39 12.7168 38.9498 12.9328 38.8543 13.1231C38.7589 13.3133 38.6217 13.4712 38.4565 13.5808Z" fill="#E8E8E8"/>
</svg>
