<svg width="48" height="43" viewBox="0 0 48 43" fill="none" xmlns="http://www.w3.org/2000/svg">
<path d="M8.00007 35.3176V25.0736L18.6882 32.1415C20.3046 33.2108 22.1361 33.7734 24.0002 33.7734C25.8643 33.7734 27.6958 33.2108 29.3123 32.1415L40.0003 25.0767V35.3176C40.0007 35.5194 39.9664 35.7193 39.8996 35.9059C39.8328 36.0925 39.7347 36.262 39.611 36.4049L39.6057 36.408L39.6003 36.4172L39.5817 36.4357L39.5203 36.5032L39.307 36.7305C39.0464 36.994 38.7787 37.248 38.5043 37.4923C37.5465 38.3394 36.5287 39.0926 35.4616 39.7438C31.9324 41.9002 27.9952 43.0187 24.0002 42.9998C20.0052 43.0187 16.068 41.9002 12.5388 39.7438C11.4726 39.0925 10.4557 38.3393 9.49875 37.4923C9.14686 37.1798 8.80698 36.8498 8.48007 36.5032L8.41874 36.4357C8.28805 36.2906 8.18374 36.117 8.11186 35.9251C8.03998 35.7331 8.00198 35.5266 8.00007 35.3176ZM47.3311 16.685L27.9842 29.4784C26.7719 30.2803 25.3983 30.7023 24.0002 30.7023C22.6022 30.7023 21.2285 30.2803 20.0162 29.4784L2.66669 18.0058V32.2459C2.66669 32.6533 2.52621 33.0439 2.27616 33.3319C2.02611 33.6199 1.68697 33.7817 1.33334 33.7817C0.97972 33.7817 0.640578 33.6199 0.390528 33.3319C0.140477 33.0439 2.05149e-07 32.6533 2.05149e-07 32.2459V15.3519C-0.000133127 15.075 0.0647286 14.8032 0.18772 14.5653C0.310712 14.3273 0.487258 14.1322 0.698673 14.0003L20.0162 1.22537C21.2283 0.422521 22.602 0 24.0002 0C25.3984 0 26.7722 0.422521 27.9842 1.22537L47.3311 14.0218C47.5344 14.1564 47.7033 14.3504 47.8207 14.5842C47.9382 14.818 48 15.0833 48 15.3534C48 15.6235 47.9382 15.8888 47.8207 16.1226C47.7033 16.3564 47.5344 16.5504 47.3311 16.685Z" fill="white"/>
</svg>
