<svg width="59" height="57" viewBox="0 0 59 57" fill="none" xmlns="http://www.w3.org/2000/svg">
<rect width="59" height="57" rx="28.5" fill="#07122A"/>
<g clip-path="url(#clip0_73_507)">
<path d="M28.7863 14.6415C29.2394 14.4528 29.7605 14.4528 30.2136 14.6415L42.9011 19.8917C43.6941 20.2203 44.1359 21.0407 43.9603 21.85C43.7904 22.6649 43.0484 23.2008 42.1365 23.25V23.6875C42.1365 24.4149 41.5814 25 40.7771 25H18.1208C17.4208 25 16.7615 24.4149 16.7615 23.6875V23.25C15.9521 23.2008 15.21 22.6649 15.0369 21.85C14.8639 21.0407 15.3075 20.2203 16.0982 19.8917L28.7863 14.6415ZM29.5 21.5C30.5025 21.5 31.3125 20.718 31.3125 19.75C31.3125 18.7837 30.5025 18 29.5 18C28.4974 18 27.6875 18.7837 27.6875 19.75C27.6875 20.718 28.4974 21.5 29.5 21.5ZM22.199 37.25H24.4646V26.75H28.0896V37.25H30.8593V26.75H34.4843V37.25H36.75V26.75H40.375V37.4852C40.4089 37.5016 40.4429 37.4742 40.4769 37.5453L43.1957 39.2953C43.8584 39.7219 44.1529 40.5203 43.9207 41.2586C43.6884 41.9969 42.9861 42.5 42.1875 42.5H16.7615C16.0138 42.5 15.3091 41.9969 15.0777 41.2586C14.8462 40.5203 15.1424 39.7219 15.8071 39.2953L18.5258 37.5453C18.5581 37.4742 18.5915 37.5016 18.574 37.4852V26.75H22.199V37.25Z" fill="white"/>
</g>
<defs>
<clipPath id="clip0_73_507">
<rect width="29" height="28" fill="white" transform="translate(15 14.5)"/>
</clipPath>
</defs>
</svg>
